<svg width="1024" height="1024" viewBox="0 0 1024 1024" fill="none" xmlns="http://www.w3.org/2000/svg">
<rect x="82" y="310" width="855" height="406" fill="#094293"/>
<ellipse cx="919" cy="708" rx="4" ry="6" fill="black"/>
<path d="M100 707.5C100 710.814 98.2091 713.5 96 713.5C93.7909 713.5 92 710.814 92 707.5C92 704.186 93.7909 701.5 96 701.5C98.2091 701.5 100 704.186 100 707.5Z" fill="black"/>
<ellipse cx="98" cy="318" rx="4" ry="6" fill="black"/>
<rect x="82" y="696" width="855" height="3" fill="#2B4F89"/>
<rect x="82" y="326" width="855" height="3" fill="#2B4F89"/>
<rect x="113" y="310" width="2" height="406" fill="#001252"/>
<rect x="903" y="310" width="2" height="406" fill="#001252"/>
<path d="M924.5 318C924.5 321.314 922.709 324 920.5 324C918.291 324 916.5 321.314 916.5 318C916.5 314.686 918.291 312 920.5 312C922.709 312 924.5 314.686 924.5 318Z" fill="black"/>
<rect x="344" y="699" width="51" height="17" fill="black"/>
<rect x="628" y="699" width="51" height="17" fill="black"/>
<rect x="890.75" y="329" width="12" height="367" fill="#16539C"/>
<rect x="872.75" y="329" width="11" height="367" fill="#1E5CA0"/>
<rect x="883.75" y="329" width="7" height="367" fill="#084192"/>
<rect x="861.75" y="329" width="11" height="367" fill="#0E4592"/>
<rect x="850.75" y="329" width="11" height="367" fill="#215FA1"/>
<rect x="839.75" y="329" width="11" height="367" fill="#0A4394"/>
<rect x="829.75" y="329" width="11" height="367" fill="#1E5CA2"/>
<rect x="818.75" y="329" width="11" height="367" fill="#104897"/>
<rect x="807.75" y="329" width="11" height="367" fill="#1C5BA3"/>
<rect x="796.75" y="329" width="11" height="367" fill="#2A61A5"/>
<rect x="786.75" y="329" width="11" height="367" fill="#104799"/>
<rect x="775.75" y="329" width="11" height="367" fill="#2962A5"/>
<rect x="764.75" y="329" width="11" height="367" fill="#0C4598"/>
<rect x="753.75" y="329" width="11" height="367" fill="#2760A8"/>
<rect x="743.75" y="329" width="11" height="367" fill="#104799"/>
<rect x="732.75" y="329" width="11" height="367" fill="#2C60A7"/>
<rect x="721.75" y="329" width="11" height="367" fill="#104799"/>
<rect x="710.75" y="329" width="11" height="367" fill="#2C60A7"/>
<rect x="700.75" y="329" width="11" height="367" fill="#104799"/>
<rect x="689.75" y="329" width="11" height="367" fill="#2C60A7"/>
<rect x="678.75" y="329" width="11" height="367" fill="#104799"/>
<rect x="667.75" y="329" width="11" height="367" fill="#2C60A7"/>
<rect x="657.75" y="329" width="11" height="367" fill="#104799"/>
<rect x="646.75" y="329" width="11" height="367" fill="#2D60A3"/>
<rect x="635.75" y="329" width="11" height="367" fill="#0D4195"/>
<rect x="624.75" y="329" width="11" height="367" fill="#2D60A3"/>
<rect x="614.75" y="329" width="11" height="367" fill="#144498"/>
<rect x="603.75" y="329" width="11" height="367" fill="#2D60A3"/>
<rect x="592.75" y="329" width="11" height="367" fill="#0E4395"/>
<rect x="581.75" y="329" width="11" height="367" fill="#2D60A3"/>
<rect x="571.75" y="329" width="11" height="367" fill="#124797"/>
<rect x="560.75" y="329" width="11" height="367" fill="#2D60A3"/>
<rect x="549.75" y="329" width="11" height="367" fill="#124797"/>
<rect x="538.75" y="329" width="11" height="367" fill="#245BA3"/>
<rect x="528.75" y="329" width="11" height="367" fill="#0E4495"/>
<rect x="517.75" y="329" width="11" height="367" fill="#2359A4"/>
<rect x="506.75" y="329" width="11" height="367" fill="#0E4495"/>
<rect x="495.75" y="329" width="11" height="367" fill="#2359A4"/>
<rect x="485.75" y="329" width="11" height="367" fill="#0E4495"/>
<rect x="474.75" y="329" width="11" height="367" fill="#2359A4"/>
<rect x="463.75" y="329" width="11" height="367" fill="#0E4495"/>
<rect x="452.75" y="329" width="11" height="367" fill="#2359A4"/>
<rect x="442.75" y="329" width="11" height="367" fill="#0E4495"/>
<rect x="431.75" y="329" width="11" height="367" fill="#2359A4"/>
<rect x="420.75" y="329" width="11" height="367" fill="#0E4495"/>
<rect x="409.75" y="329" width="11" height="367" fill="#2359A4"/>
<rect x="399.75" y="329" width="11" height="367" fill="#0E4495"/>
<rect x="388.75" y="329" width="11" height="367" fill="#2359A4"/>
<rect x="377.75" y="329" width="11" height="367" fill="#0E4495"/>
<rect x="366.75" y="329" width="11" height="367" fill="#2359A4"/>
<rect x="356.75" y="329" width="11" height="367" fill="#0E4495"/>
<rect x="345.75" y="329" width="11" height="367" fill="#2359A4"/>
<rect x="334.75" y="329" width="11" height="367" fill="#0E4495"/>
<rect x="323.75" y="329" width="11" height="367" fill="#2359A4"/>
<rect x="313.75" y="329" width="11" height="367" fill="#0E4495"/>
<rect x="302.75" y="329" width="11" height="367" fill="#2359A4"/>
<rect x="291.75" y="329" width="11" height="367" fill="#0E4495"/>
<rect x="280.75" y="329" width="11" height="367" fill="#2359A4"/>
<rect x="270.75" y="329" width="11" height="367" fill="#0E4495"/>
<rect x="259.75" y="329" width="11" height="367" fill="#2359A4"/>
<rect x="248.75" y="329" width="11" height="367" fill="#0E4495"/>
<rect x="237.75" y="329" width="11" height="367" fill="#2359A4"/>
<rect x="226.75" y="329" width="11" height="367" fill="#0E4495"/>
<rect x="215.75" y="329" width="11" height="367" fill="#2359A4"/>
<rect x="205.75" y="329" width="11" height="367" fill="#0E4495"/>
<rect x="194.75" y="329" width="11" height="367" fill="#2359A4"/>
<rect x="183.75" y="329" width="11" height="367" fill="#0E4495"/>
<rect x="172.75" y="329" width="11" height="367" fill="#2359A4"/>
<rect x="162.75" y="329" width="11" height="367" fill="#0E4495"/>
<rect x="151.75" y="329" width="11" height="367" fill="#2359A4"/>
<rect x="140.75" y="329" width="11" height="367" fill="#0E4495"/>
<rect x="129.75" y="329" width="11" height="367" fill="#2359A4"/>
<rect x="114.75" y="329" width="15" height="367" fill="#0E4495"/>
<rect x="115" y="310" width="16" height="16" fill="#FBB512"/>
<rect x="131" y="310" width="16" height="16" fill="#150F0A"/>
<rect x="147" y="310" width="16" height="16" fill="#FBB512"/>
<rect x="163" y="310" width="16" height="16" fill="#150F0A"/>
<rect x="179" y="310" width="16" height="16" fill="#FBB512"/>
<rect x="195" y="310" width="16" height="16" fill="#150F0A"/>
<rect x="807" y="310" width="16" height="16" fill="#FBB512"/>
<rect x="823" y="310" width="16" height="16" fill="#150F0A"/>
<rect x="839" y="310" width="16" height="16" fill="#FBB512"/>
<rect x="855" y="310" width="16" height="16" fill="#150F0A"/>
<rect x="871" y="310" width="16" height="16" fill="#FBB512"/>
<rect x="887" y="310" width="16" height="16" fill="#150F0A"/>
<rect x="800.5" y="454.5" width="14" height="21" fill="#F2C20C" stroke="black"/>
<path d="M781.454 389.008H781.742V397H780.698V389.716L781.454 389.008ZM778.67 391.516V390.448L781.454 389.008V390.064L778.67 391.516ZM778.682 397V396.136H783.662V397H778.682ZM781.454 406.008H781.742V414H780.698V406.716L781.454 406.008ZM778.67 408.516V407.448L781.454 406.008V407.064L778.67 408.516ZM778.682 414V413.136H783.662V414H778.682ZM777.95 428.9V428.312L778.418 428.132H782.198L782.282 428.06H784.322V428.9H777.95ZM777.95 428.456V428.156L781.358 423.14H782.03L782.09 423.476L778.718 428.42L778.958 427.772V428.444L777.95 428.456ZM782.762 423.14V431H781.742V428.516L781.826 428.42V423.14H782.762ZM778.97 440.14H783.29V441.004H779.174L778.97 440.872V440.14ZM778.862 440.14H779.822L779.522 443.656L779.306 444.424L778.598 444.316L778.562 444.256L778.862 440.14ZM783.746 445.228C783.746 445.732 783.618 446.18 783.362 446.572C783.114 446.956 782.706 447.272 782.138 447.52C781.57 447.76 780.814 447.92 779.87 448L778.478 448.12L778.382 447.22L779.81 447.088C780.546 447.016 781.122 446.9 781.538 446.74C781.962 446.58 782.258 446.372 782.426 446.116C782.602 445.86 782.69 445.56 782.69 445.216C782.69 444.912 782.622 444.652 782.486 444.436C782.358 444.22 782.182 444.06 781.958 443.956C781.742 443.844 781.502 443.788 781.238 443.788C780.918 443.788 780.594 443.844 780.266 443.956C779.946 444.06 779.626 444.216 779.306 444.424L779.234 443.74C779.578 443.468 779.93 443.268 780.29 443.14C780.65 443.012 781.03 442.948 781.43 442.948C781.846 442.948 782.23 443.036 782.582 443.212C782.934 443.388 783.214 443.648 783.422 443.992C783.638 444.328 783.746 444.74 783.746 445.228ZM782.006 460.956L780.002 460.896C779.538 460.76 779.166 460.536 778.886 460.224C778.606 459.904 778.466 459.536 778.466 459.12C778.466 458.68 778.574 458.3 778.79 457.98C779.014 457.652 779.318 457.4 779.702 457.224C780.094 457.048 780.534 456.96 781.022 456.96C781.51 456.96 781.942 457.048 782.318 457.224C782.694 457.392 782.99 457.636 783.206 457.956C783.422 458.276 783.53 458.656 783.53 459.096C783.53 459.512 783.39 459.88 783.11 460.2C782.83 460.52 782.462 460.752 782.006 460.896V460.956ZM781.01 460.56C781.282 460.56 781.53 460.5 781.754 460.38C781.978 460.26 782.158 460.096 782.294 459.888C782.43 459.672 782.498 459.424 782.498 459.144C782.498 458.728 782.354 458.4 782.066 458.16C781.786 457.912 781.43 457.788 780.998 457.788C780.566 457.788 780.206 457.912 779.918 458.16C779.638 458.4 779.498 458.736 779.498 459.168C779.498 459.448 779.566 459.692 779.702 459.9C779.846 460.108 780.03 460.272 780.254 460.392C780.486 460.504 780.738 460.56 781.01 460.56ZM780.986 465.18C780.458 465.18 779.986 465.088 779.57 464.904C779.154 464.72 778.826 464.46 778.586 464.124C778.346 463.788 778.226 463.388 778.226 462.924C778.226 462.46 778.39 462.052 778.718 461.7C779.046 461.348 779.474 461.1 780.002 460.956V460.896L782.006 460.956C782.534 461.092 782.958 461.336 783.278 461.688C783.606 462.032 783.77 462.436 783.77 462.9C783.77 463.364 783.646 463.768 783.398 464.112C783.158 464.448 782.83 464.712 782.414 464.904C781.998 465.088 781.522 465.18 780.986 465.18ZM781.01 464.352C781.498 464.352 781.906 464.22 782.234 463.956C782.57 463.684 782.738 463.316 782.738 462.852C782.738 462.548 782.658 462.284 782.498 462.06C782.346 461.828 782.138 461.652 781.874 461.532C781.618 461.404 781.326 461.34 780.998 461.34C780.678 461.34 780.386 461.404 780.122 461.532C779.858 461.66 779.646 461.84 779.486 462.072C779.334 462.304 779.258 462.572 779.258 462.876C779.258 463.324 779.422 463.684 779.75 463.956C780.086 464.22 780.506 464.352 781.01 464.352ZM777.95 479.9V479.312L778.418 479.132H782.198L782.282 479.06H784.322V479.9H777.95ZM777.95 479.456V479.156L781.358 474.14H782.03L782.09 474.476L778.718 479.42L778.958 478.772V479.444L777.95 479.456ZM782.762 474.14V482H781.742V479.516L781.826 479.42V474.14H782.762ZM781.454 491.008H781.742V499H780.698V491.716L781.454 491.008ZM778.67 493.516V492.448L781.454 491.008V492.064L778.67 493.516ZM778.682 499V498.136H783.662V499H778.682ZM778.334 516V515.46L779.042 515.136H783.842V516H778.334ZM783.626 510.084C783.626 510.3 783.598 510.504 783.542 510.696C783.486 510.888 783.39 511.092 783.254 511.308C783.118 511.524 782.918 511.78 782.654 512.076C782.398 512.364 782.062 512.716 781.646 513.132L779.414 515.388L779.702 514.776V515.568L778.334 515.58V515.28L780.866 512.652C781.234 512.268 781.526 511.952 781.742 511.704C781.966 511.448 782.138 511.232 782.258 511.056C782.378 510.88 782.458 510.72 782.498 510.576C782.538 510.432 782.558 510.28 782.558 510.12C782.558 509.736 782.442 509.428 782.21 509.196C781.986 508.964 781.654 508.848 781.214 508.848C780.95 508.848 780.702 508.892 780.47 508.98C780.246 509.06 779.998 509.2 779.726 509.4C779.462 509.6 779.134 509.884 778.742 510.252L778.166 509.544C778.59 509.136 778.97 508.82 779.306 508.596C779.642 508.364 779.966 508.2 780.278 508.104C780.59 508.008 780.918 507.96 781.262 507.96C781.726 507.96 782.134 508.048 782.486 508.224C782.838 508.4 783.114 508.648 783.314 508.968C783.522 509.28 783.626 509.652 783.626 510.084ZM781.034 528.692L780.134 528.524C780.294 528.468 780.462 528.424 780.638 528.392C780.814 528.36 780.994 528.344 781.178 528.344C781.794 528.344 782.29 528.448 782.666 528.656C783.042 528.856 783.314 529.116 783.482 529.436C783.658 529.756 783.746 530.088 783.746 530.432C783.746 530.904 783.618 531.324 783.362 531.692C783.114 532.052 782.706 532.348 782.138 532.58C781.578 532.812 780.838 532.96 779.918 533.024L778.49 533.12L778.406 532.196L779.846 532.088C780.558 532.04 781.118 531.944 781.526 531.8C781.942 531.656 782.238 531.468 782.414 531.236C782.59 531.004 782.678 530.74 782.678 530.444C782.678 530.052 782.53 529.74 782.234 529.508C781.946 529.268 781.462 529.148 780.782 529.148C780.598 529.148 780.422 529.156 780.254 529.172C780.086 529.188 779.91 529.212 779.726 529.244L779.534 528.764L782.27 525.74L781.994 526.364V525.548H783.386V525.8L780.734 528.644L781.034 528.02V528.692ZM778.226 526.004V525.14H783.386V525.608L782.858 526.004H778.226ZM777.95 547.9V547.312L778.418 547.132H782.198L782.282 547.06H784.322V547.9H777.95ZM777.95 547.456V547.156L781.358 542.14H782.03L782.09 542.476L778.718 547.42L778.958 546.772V547.444L777.95 547.456ZM782.762 542.14V550H781.742V547.516L781.826 547.42V542.14H782.762ZM782.738 561.912C782.738 561.472 782.662 561.096 782.51 560.784C782.358 560.472 782.15 560.232 781.886 560.064C781.63 559.896 781.334 559.812 780.998 559.812C780.646 559.812 780.342 559.896 780.086 560.064C779.83 560.232 779.63 560.46 779.486 560.748C779.35 561.028 779.282 561.352 779.282 561.72C779.282 562.24 779.434 562.66 779.738 562.98C780.05 563.3 780.482 563.46 781.034 563.46C781.362 563.46 781.69 563.428 782.018 563.364C782.346 563.292 782.686 563.18 783.038 563.028L782.714 563.808C782.346 563.968 782.006 564.084 781.694 564.156C781.39 564.22 781.09 564.252 780.794 564.252C780.282 564.252 779.83 564.148 779.438 563.94C779.054 563.732 778.754 563.436 778.538 563.052C778.322 562.668 778.214 562.216 778.214 561.696C778.214 561.16 778.334 560.688 778.574 560.28C778.822 559.864 779.162 559.54 779.594 559.308C780.026 559.076 780.526 558.96 781.094 558.96C781.574 558.96 782.018 559.072 782.426 559.296C782.842 559.52 783.174 559.848 783.422 560.28C783.67 560.704 783.794 561.232 783.794 561.864C783.794 562.376 783.722 562.852 783.578 563.292C783.442 563.724 783.222 564.152 782.918 564.576C782.622 565 782.234 565.44 781.754 565.896L780.59 567H779.162L779.15 566.976L780.83 565.476C781.286 565.076 781.65 564.684 781.922 564.3C782.202 563.908 782.406 563.516 782.534 563.124C782.67 562.732 782.738 562.328 782.738 561.912ZM778.97 576.14H783.29V577.004H779.174L778.97 576.872V576.14ZM778.862 576.14H779.822L779.522 579.656L779.306 580.424L778.598 580.316L778.562 580.256L778.862 576.14ZM783.746 581.228C783.746 581.732 783.618 582.18 783.362 582.572C783.114 582.956 782.706 583.272 782.138 583.52C781.57 583.76 780.814 583.92 779.87 584L778.478 584.12L778.382 583.22L779.81 583.088C780.546 583.016 781.122 582.9 781.538 582.74C781.962 582.58 782.258 582.372 782.426 582.116C782.602 581.86 782.69 581.56 782.69 581.216C782.69 580.912 782.622 580.652 782.486 580.436C782.358 580.22 782.182 580.06 781.958 579.956C781.742 579.844 781.502 579.788 781.238 579.788C780.918 579.788 780.594 579.844 780.266 579.956C779.946 580.06 779.626 580.216 779.306 580.424L779.234 579.74C779.578 579.468 779.93 579.268 780.29 579.14C780.65 579.012 781.03 578.948 781.43 578.948C781.846 578.948 782.23 579.036 782.582 579.212C782.934 579.388 783.214 579.648 783.422 579.992C783.638 580.328 783.746 580.74 783.746 581.228ZM781.454 593.008H781.742V601H780.698V593.716L781.454 593.008ZM778.67 595.516V594.448L781.454 593.008V594.064L778.67 595.516ZM778.682 601V600.136H783.662V601H778.682ZM778.334 618V617.46L779.042 617.136H783.842V618H778.334ZM783.626 612.084C783.626 612.3 783.598 612.504 783.542 612.696C783.486 612.888 783.39 613.092 783.254 613.308C783.118 613.524 782.918 613.78 782.654 614.076C782.398 614.364 782.062 614.716 781.646 615.132L779.414 617.388L779.702 616.776V617.568L778.334 617.58V617.28L780.866 614.652C781.234 614.268 781.526 613.952 781.742 613.704C781.966 613.448 782.138 613.232 782.258 613.056C782.378 612.88 782.458 612.72 782.498 612.576C782.538 612.432 782.558 612.28 782.558 612.12C782.558 611.736 782.442 611.428 782.21 611.196C781.986 610.964 781.654 610.848 781.214 610.848C780.95 610.848 780.702 610.892 780.47 610.98C780.246 611.06 779.998 611.2 779.726 611.4C779.462 611.6 779.134 611.884 778.742 612.252L778.166 611.544C778.59 611.136 778.97 610.82 779.306 610.596C779.642 610.364 779.966 610.2 780.278 610.104C780.59 610.008 780.918 609.96 781.262 609.96C781.726 609.96 782.134 610.048 782.486 610.224C782.838 610.4 783.114 610.648 783.314 610.968C783.522 611.28 783.626 611.652 783.626 612.084Z" fill="white"/>
<path d="M810.97 365.14H813.322C814.106 365.14 814.714 365.336 815.146 365.728C815.578 366.112 815.794 366.628 815.794 367.276C815.794 367.556 815.754 367.824 815.674 368.08C815.602 368.328 815.462 368.552 815.254 368.752C815.054 368.952 814.774 369.128 814.414 369.28C814.054 369.424 813.59 369.532 813.022 369.604V369.808H810.97V369.232L812.05 369.1C812.802 369.012 813.37 368.888 813.754 368.728C814.138 368.568 814.398 368.376 814.534 368.152C814.678 367.92 814.75 367.656 814.75 367.36C814.75 366.936 814.618 366.6 814.354 366.352C814.098 366.104 813.694 365.98 813.142 365.98H810.97V365.14ZM810.454 365.14H811.498V373H810.454V365.14ZM816.286 372.952V373H814.966L813.298 370.924C813.13 370.7 812.974 370.52 812.83 370.384C812.686 370.248 812.534 370.144 812.374 370.072C812.214 370 812.022 369.948 811.798 369.916C811.582 369.884 811.306 369.86 810.97 369.844V369.676H813.022C813.19 369.74 813.338 369.812 813.466 369.892C813.602 369.964 813.742 370.068 813.886 370.204C814.03 370.332 814.202 370.516 814.402 370.756L816.286 372.952ZM810.49 382.14H811.534V390H810.49V382.14ZM810.634 383.004V382.14H815.734V383.004H810.634ZM810.634 390V389.136H815.818V390H810.634ZM810.634 386.46V385.596H815.086V386.46H810.634ZM813.01 406.292C813.602 406.292 814.038 406.172 814.318 405.932C814.598 405.684 814.738 405.348 814.738 404.924C814.738 404.716 814.694 404.532 814.606 404.372C814.526 404.212 814.386 404.068 814.186 403.94C813.986 403.804 813.71 403.684 813.358 403.58L812.506 403.304C811.77 403.072 811.246 402.772 810.934 402.404C810.622 402.036 810.466 401.58 810.466 401.036C810.466 400.684 810.562 400.352 810.754 400.04C810.954 399.728 811.25 399.476 811.642 399.284C812.042 399.084 812.546 398.984 813.154 398.984C813.578 398.984 813.97 399.016 814.33 399.08C814.69 399.144 815.102 399.24 815.566 399.368L815.386 400.268C814.906 400.124 814.482 400.02 814.114 399.956C813.754 399.884 813.426 399.848 813.13 399.848C812.546 399.848 812.13 399.956 811.882 400.172C811.642 400.388 811.522 400.652 811.522 400.964C811.522 401.18 811.562 401.376 811.642 401.552C811.73 401.728 811.874 401.884 812.074 402.02C812.274 402.148 812.554 402.272 812.914 402.392L813.778 402.656C814.506 402.888 815.022 403.172 815.326 403.508C815.638 403.844 815.794 404.3 815.794 404.876C815.794 405.348 815.682 405.756 815.458 406.1C815.242 406.436 814.926 406.696 814.51 406.88C814.094 407.064 813.59 407.156 812.998 407.156C812.55 407.156 812.094 407.108 811.63 407.012C811.174 406.916 810.682 406.768 810.154 406.568L810.406 405.68C810.918 405.872 811.398 406.024 811.846 406.136C812.294 406.24 812.682 406.292 813.01 406.292ZM812.482 416.62H813.526V424H812.482V416.62ZM809.926 417.004V416.14H816.07V417.004H809.926Z" fill="white"/>
<path d="M189.977 481.16H215.065C223.427 481.16 229.913 483.251 234.521 487.432C239.129 491.528 241.433 497.032 241.433 503.944C241.433 506.931 241.006 509.789 240.153 512.52C239.385 515.165 237.891 517.555 235.673 519.688C233.539 521.821 230.553 523.699 226.713 525.32C222.873 526.856 217.923 528.008 211.865 528.776V530.952H189.977V524.808L201.497 523.4C209.518 522.461 215.577 521.139 219.673 519.432C223.769 517.725 226.542 515.677 227.993 513.288C229.529 510.813 230.297 507.997 230.297 504.84C230.297 500.317 228.889 496.733 226.073 494.088C223.342 491.443 219.033 490.12 213.145 490.12H189.977V481.16ZM184.473 481.16H195.609V565H184.473V481.16ZM246.681 564.488V565H232.601L214.809 542.856C213.017 540.467 211.353 538.547 209.817 537.096C208.281 535.645 206.659 534.536 204.953 533.768C203.246 533 201.198 532.445 198.809 532.104C196.505 531.763 193.561 531.507 189.977 531.336V529.544H211.865C213.657 530.227 215.235 530.995 216.601 531.848C218.051 532.616 219.545 533.725 221.081 535.176C222.617 536.541 224.451 538.504 226.585 541.064L246.681 564.488ZM296.634 556.936L308.922 557.32L308.538 565.896L293.434 565.64C281.914 565.469 273.551 562.824 268.346 557.704C263.14 552.584 260.538 545.416 260.538 536.2C260.538 529.885 261.86 524.296 264.506 519.432C267.236 514.483 270.906 510.6 275.514 507.784C280.207 504.968 285.54 503.56 291.514 503.56C297.316 503.56 302.351 504.755 306.618 507.144C310.884 509.448 314.17 512.904 316.474 517.512C318.863 522.035 320.058 527.709 320.058 534.536C320.058 535.475 320.015 536.328 319.93 537.096C319.844 537.864 319.759 538.547 319.674 539.144H266.042V530.952H313.786L309.306 534.024C309.306 526.344 307.684 520.797 304.442 517.384C301.199 513.971 296.89 512.264 291.514 512.264C287.759 512.264 284.346 513.203 281.274 515.08C278.287 516.872 275.855 519.517 273.978 523.016C272.186 526.515 271.29 530.781 271.29 535.816C271.29 540.509 272.143 544.392 273.85 547.464C275.556 550.536 278.287 552.84 282.042 554.376C285.796 555.912 290.66 556.765 296.634 556.936ZM396.379 548.36C396.379 551.773 395.355 554.845 393.307 557.576C391.259 560.307 388.016 562.525 383.579 564.232C379.227 565.853 373.595 566.664 366.683 566.664C362.928 566.664 359.045 566.451 355.035 566.024C351.024 565.683 346.544 565.043 341.595 564.104L343.259 554.76C347.781 555.699 352.133 556.424 356.315 556.936C360.581 557.363 364.08 557.576 366.811 557.576C373.893 557.576 378.715 556.808 381.275 555.272C383.92 553.651 385.243 551.603 385.243 549.128C385.243 547.08 384.517 545.416 383.067 544.136C381.616 542.771 378.544 541.533 373.851 540.424L362.715 537.864C357.253 536.499 353.115 535.048 350.299 533.512C347.483 531.976 345.563 530.184 344.539 528.136C343.6 526.003 343.131 523.571 343.131 520.84C343.131 515.891 345.349 511.837 349.787 508.68C354.224 505.437 361.563 503.816 371.803 503.816C374.619 503.816 378.032 504.029 382.043 504.456C386.139 504.883 390.107 505.437 393.947 506.12L392.411 515.464C388.4 514.525 384.56 513.843 380.891 513.416C377.307 512.989 374.235 512.776 371.675 512.776C367.152 512.776 363.611 513.117 361.051 513.8C358.576 514.397 356.827 515.251 355.803 516.36C354.864 517.384 354.395 518.579 354.395 519.944C354.395 521.224 354.651 522.376 355.163 523.4C355.76 524.339 356.869 525.192 358.491 525.96C360.112 526.728 362.501 527.539 365.659 528.392L376.667 530.952C382.128 532.232 386.267 533.683 389.083 535.304C391.899 536.84 393.819 538.675 394.843 540.808C395.867 542.941 396.379 545.459 396.379 548.36ZM436.22 542.344V514.696H416.124V505.48H436.348V483.336H446.972V505.48H473.468V514.696H447.1V540.808C447.1 544.477 447.441 547.379 448.124 549.512C448.806 551.56 450.001 553.053 451.708 553.992C453.5 554.845 455.932 555.357 459.004 555.528L477.052 556.552L476.284 565.896L456.444 565C451.238 564.744 447.142 563.891 444.156 562.44C441.254 560.989 439.206 558.685 438.012 555.528C436.817 552.285 436.22 547.891 436.22 542.344ZM525.853 566.92C519.794 566.92 514.418 565.597 509.725 562.952C505.117 560.307 501.49 556.595 498.845 551.816C496.285 547.037 495.005 541.448 495.005 535.048C495.005 528.989 496.327 523.571 498.973 518.792C501.618 514.013 505.287 510.301 509.981 507.656C514.759 504.925 520.221 503.56 526.365 503.56C532.423 503.56 537.757 504.925 542.365 507.656C547.058 510.301 550.685 514.013 553.245 518.792C555.89 523.571 557.213 529.117 557.213 535.432C557.213 541.661 555.89 547.123 553.245 551.816C550.599 556.509 546.887 560.221 542.109 562.952C537.415 565.597 531.997 566.92 525.853 566.92ZM526.109 557.704C531.997 557.704 536.775 555.784 540.445 551.944C544.199 548.019 546.077 542.472 546.077 535.304C546.077 530.696 545.223 526.728 543.517 523.4C541.81 519.987 539.463 517.341 536.477 515.464C533.575 513.587 530.119 512.648 526.109 512.648C522.183 512.648 518.727 513.587 515.741 515.464C512.754 517.256 510.407 519.859 508.701 523.272C506.994 526.6 506.141 530.568 506.141 535.176C506.141 542.173 507.975 547.677 511.645 551.688C515.314 555.699 520.135 557.704 526.109 557.704ZM607.422 512.904C603.155 512.904 599.358 513.843 596.03 515.72C592.787 517.597 590.27 520.2 588.478 523.528C586.686 526.856 585.79 530.653 585.79 534.92C585.79 539.443 586.686 543.411 588.478 546.824C590.27 550.237 592.702 552.883 595.774 554.76C598.931 556.637 602.43 557.576 606.27 557.576C609.427 557.576 612.84 557.064 616.51 556.04C620.264 555.016 624.915 553.011 630.462 550.024L635.198 557.576C628.968 561.245 623.592 563.72 619.07 565C614.632 566.28 610.195 566.92 605.758 566.92C599.784 566.92 594.408 565.64 589.63 563.08C584.936 560.52 581.224 556.851 578.494 552.072C575.763 547.208 574.398 541.448 574.398 534.792C574.398 528.904 575.848 523.613 578.75 518.92C581.651 514.141 585.576 510.387 590.526 507.656C595.475 504.925 601.064 503.56 607.294 503.56C609.939 503.56 612.584 503.816 615.23 504.328C617.96 504.755 620.904 505.651 624.062 507.016C627.219 508.381 630.803 510.429 634.814 513.16L629.822 521.224C626.152 518.749 622.995 516.957 620.35 515.848C617.704 514.653 615.358 513.885 613.31 513.544C611.347 513.117 609.384 512.904 607.422 512.904ZM669.151 474.12V565H658.271V474.12H669.151ZM668.127 533L700.767 505.48H714.847V505.736L676.703 537.224L668.127 533ZM667.359 534.024L668.127 533L676.958 529.8L714.975 564.744V565H700.255L667.359 534.024Z" fill="white"/>
</svg>
