<svg width="400" height="552" viewBox="0 0 400 552" fill="none" xmlns="http://www.w3.org/2000/svg">
<rect width="400" height="552" fill="#38300D"/>
<rect x="31" y="49" width="339" height="464" fill="#D9D9D9"/>
<line x1="50.0018" y1="115.5" x2="354.002" y2="116.574" stroke="#B8B8B8"/>
<line x1="50.0018" y1="155.5" x2="354.002" y2="156.574" stroke="#B8B8B8"/>
<line x1="50.0018" y1="195.5" x2="354.002" y2="196.574" stroke="#B8B8B8"/>
<line x1="50.0018" y1="235.5" x2="354.002" y2="236.574" stroke="#B8B8B8"/>
<line x1="50.0018" y1="275.5" x2="354.002" y2="276.574" stroke="#B8B8B8"/>
<line x1="50.0018" y1="315.5" x2="354.002" y2="316.574" stroke="#B8B8B8"/>
<line x1="50.0018" y1="355.5" x2="354.002" y2="356.574" stroke="#B8B8B8"/>
<line x1="50.0018" y1="395.5" x2="354.002" y2="396.574" stroke="#B8B8B8"/>
<line x1="50.0018" y1="435.5" x2="354.002" y2="436.574" stroke="#B8B8B8"/>
<line x1="50.0018" y1="475.5" x2="354.002" y2="476.574" stroke="#B8B8B8"/>
<rect x="120" y="38" width="160" height="11" rx="4" fill="#737373"/>
<rect x="120" y="45" width="160" height="4" fill="#737373"/>
<line x1="129.5" y1="46" x2="129.5" y2="66" stroke="#737373"/>
<line y1="-0.5" x2="20" y2="-0.5" transform="matrix(0 1 1 0 271 48)" stroke="#737373"/>
<line x1="133" y1="70" x2="178" y2="70" stroke="#737373"/>
<line x1="222" y1="70" x2="267" y2="70" stroke="#737373"/>
<path d="M177.5 70C181 70 179.5 67.5 185 67.5H198.5" stroke="#737373"/>
<path d="M223 70C219.5 70 221 67.5 215.5 67.5H202" stroke="#737373"/>
<path d="M129.509 66C129.509 70 129.11 70 133.5 70" stroke="black" stroke-width="2"/>
<path d="M266.5 69.9906C270.5 69.9906 270.5 70.3896 270.5 66" stroke="black" stroke-width="2"/>
<line x1="198.5" y1="67.5" x2="202" y2="67.5" stroke="#737373"/>
<path d="M315.825 59.6633L325.877 73.6287L312.323 76.5096L315.825 59.6633Z" fill="#A27C15"/>
<path d="M315.825 59.6633L320.773 66.2792L313.996 67.7196L315.825 59.6633Z" fill="#535353"/>
<line x1="318.927" y1="74.2578" x2="338.201" y2="160.127" stroke="#C1C71F" stroke-width="14"/>
<line x1="338.01" y1="159.226" x2="338.842" y2="163.139" stroke="#777777" stroke-width="14"/>
<rect x="331.995" y="164.594" width="14" height="8" rx="2" transform="rotate(-12 331.995 164.594)" fill="#D58181"/>
<rect x="331.995" y="164.594" width="14" height="3" transform="rotate(-12 331.995 164.594)" fill="#D58181"/>
<path d="M152.484 92.1719C151.849 92.1719 151.344 92.1823 150.969 92.2031V103.594C152.01 103.646 152.891 103.672 153.609 103.672C155.391 103.672 156.948 103.516 158.281 103.203C159.625 102.891 160.708 102.276 161.531 101.359C162.365 100.432 162.781 99.1198 162.781 97.4219C162.781 94.9531 161.25 93.3385 158.188 92.5781C157.031 92.3073 155.13 92.1719 152.484 92.1719ZM149.625 113.906L146.344 114C145.875 114 145.505 113.891 145.234 113.672C144.964 113.443 144.828 113.141 144.828 112.766C144.828 112.391 144.984 112.083 145.297 111.844C145.62 111.604 146.047 111.484 146.578 111.484H148.062V92.3281C147.292 92.3698 146.568 92.3906 145.891 92.3906C144.557 92.3906 143.891 91.9479 143.891 91.0625C143.891 90.5 144.292 90.0938 145.094 89.8438C145.375 89.75 145.719 89.7031 146.125 89.7031H151.344C154.188 89.7031 155.948 89.7396 156.625 89.8125C157.312 89.8854 158.052 89.9896 158.844 90.125C159.646 90.25 160.521 90.5417 161.469 91C162.417 91.4583 163.214 92.0104 163.859 92.6562C165.193 93.9688 165.859 95.4635 165.859 97.1406C165.859 98.8177 165.609 100.214 165.109 101.328C164.609 102.443 163.828 103.354 162.766 104.062C160.682 105.458 157.292 106.156 152.594 106.156C152.323 106.156 152.052 106.156 151.781 106.156C151.51 106.156 151.24 106.151 150.969 106.141V111.484H152.391C153.12 111.484 153.63 111.615 153.922 111.875C154.224 112.125 154.375 112.38 154.375 112.641C154.375 113.547 153.818 114 152.703 114L149.625 113.906ZM179.797 107.5C178.109 107.177 176.609 107.016 175.297 107.016C173.995 107.016 173.031 107.276 172.406 107.797C171.792 108.307 171.484 108.891 171.484 109.547C171.484 110.203 171.771 110.745 172.344 111.172C172.917 111.589 173.719 111.797 174.75 111.797C176.865 111.797 178.547 111.115 179.797 109.75V107.5ZM180.156 112.172C179.01 113.547 177.109 114.234 174.453 114.234C172.682 114.234 171.271 113.828 170.219 113.016C169.177 112.203 168.656 111.104 168.656 109.719C168.656 107.417 169.932 105.917 172.484 105.219C173.349 104.99 174.464 104.875 175.828 104.875C177.203 104.875 178.526 105.031 179.797 105.344V103.625C179.797 101.906 179.109 100.854 177.734 100.469C177.245 100.323 176.589 100.25 175.766 100.25C174.005 100.25 172.99 100.719 172.719 101.656C172.552 102.156 172.255 102.516 171.828 102.734C171.641 102.828 171.427 102.875 171.188 102.875C170.198 102.875 169.703 102.344 169.703 101.281C169.703 100.375 170.297 99.5729 171.484 98.875C172.682 98.1771 174.198 97.8281 176.031 97.8281C179.135 97.8281 181.141 98.9271 182.047 101.125C182.349 101.875 182.5 102.76 182.5 103.781V107.828C182.5 109.245 182.557 110.198 182.672 110.688C182.786 111.167 183 111.505 183.312 111.703C183.865 112.057 184.141 112.469 184.141 112.938C184.141 113.802 183.594 114.234 182.5 114.234C181.417 114.234 180.635 113.547 180.156 112.172ZM198.531 111.062C197.5 113.177 195.771 114.234 193.344 114.234C192.552 114.234 191.818 114.094 191.141 113.812C189.255 113.021 188.312 111.286 188.312 108.609V101.594C188.312 100.99 188.177 100.688 187.906 100.688L186.75 100.875C185.823 100.875 185.359 100.448 185.359 99.5938C185.359 98.8333 185.859 98.4062 186.859 98.3125C187.453 98.2604 187.917 98.1875 188.25 98.0938L189.047 97.9062C189.245 97.8542 189.526 97.8281 189.891 97.8281C190.255 97.8281 190.536 97.9688 190.734 98.25C190.932 98.5312 191.031 98.8906 191.031 99.3281V107.594C191.031 109.688 191.557 110.979 192.609 111.469C192.995 111.646 193.448 111.734 193.969 111.734C194.948 111.734 195.859 111.255 196.703 110.297C197.547 109.339 198.141 108.167 198.484 106.781V101.594C198.484 101.198 198.448 100.948 198.375 100.844C198.302 100.74 198.198 100.688 198.062 100.688L196.969 100.875C196.042 100.875 195.578 100.448 195.578 99.5938C195.578 98.8333 196.089 98.4062 197.109 98.3125C197.651 98.2604 198.094 98.1927 198.438 98.1094L199.219 97.9062C199.406 97.8542 199.682 97.8281 200.047 97.8281C200.422 97.8281 200.703 97.9688 200.891 98.25C201.089 98.5312 201.188 98.8906 201.188 99.3281V107.828C201.188 109.786 201.427 110.99 201.906 111.438C202.052 111.573 202.245 111.688 202.484 111.781C202.901 111.948 203.109 112.276 203.109 112.766C203.109 113.745 202.526 114.234 201.359 114.234C200.203 114.234 199.38 113.656 198.891 112.5C198.714 112.094 198.594 111.615 198.531 111.062ZM212.359 114.234C211.453 114.234 210.578 114.161 209.734 114.016C209.307 114.766 208.859 115.141 208.391 115.141C207.724 115.141 207.391 114.833 207.391 114.219C207.391 113.677 207.25 113.172 206.969 112.703C206.698 112.234 206.458 111.844 206.25 111.531C205.552 110.49 205.203 109.76 205.203 109.344C205.203 108.927 205.323 108.62 205.562 108.422C205.802 108.224 206.068 108.125 206.359 108.125C206.932 108.125 207.448 108.583 207.906 109.5C208.375 110.406 208.927 111.01 209.562 111.312C210.198 111.615 211.198 111.766 212.562 111.766C214.573 111.766 215.88 111.193 216.484 110.047C216.672 109.703 216.766 109.328 216.766 108.922C216.766 108.109 216.411 107.536 215.703 107.203C214.995 106.859 213.896 106.641 212.406 106.547C210.917 106.453 209.818 106.292 209.109 106.062C207.047 105.365 206.016 104.125 206.016 102.344C206.016 101.25 206.589 100.266 207.734 99.3906C208.891 98.5052 210.578 98.0625 212.797 98.0625C213.266 98.0625 213.734 98.1042 214.203 98.1875C214.099 97.8958 214.047 97.651 214.047 97.4531C214.047 97.2552 214.135 97.0729 214.312 96.9062C214.49 96.7292 214.708 96.6406 214.969 96.6406C215.24 96.6406 215.448 96.7083 215.594 96.8438C215.74 96.9792 215.906 97.2344 216.094 97.6094C216.281 97.974 216.641 98.5 217.172 99.1875C217.703 99.8646 218.031 100.333 218.156 100.594C218.292 100.844 218.359 101.115 218.359 101.406C218.359 101.698 218.266 101.943 218.078 102.141C217.901 102.339 217.661 102.438 217.359 102.438C216.786 102.438 216.271 102.057 215.812 101.297C215.583 100.911 215.25 100.646 214.812 100.5C214.375 100.354 213.615 100.281 212.531 100.281C211.448 100.281 210.578 100.479 209.922 100.875C209.276 101.26 208.953 101.719 208.953 102.25C208.953 102.781 209.12 103.151 209.453 103.359C210.068 103.755 211.026 103.99 212.328 104.062C214.828 104.208 216.641 104.635 217.766 105.344C218.901 106.052 219.469 107.109 219.469 108.516C219.469 110.318 218.781 111.724 217.406 112.734C216.031 113.734 214.349 114.234 212.359 114.234ZM224.625 104.562L225.703 104.594C226.057 104.604 227.193 104.609 229.109 104.609C231.026 104.609 232.281 104.453 232.875 104.141C233.469 103.828 233.766 103.354 233.766 102.719C233.766 102.083 233.406 101.521 232.688 101.031C231.969 100.542 231.172 100.297 230.297 100.297C228.766 100.297 227.505 100.688 226.516 101.469C225.526 102.25 224.896 103.281 224.625 104.562ZM235.109 109.078C236.026 109.078 236.484 109.49 236.484 110.312C236.484 110.688 236.339 111.109 236.047 111.578C235.766 112.036 235.349 112.464 234.797 112.859C233.505 113.776 231.812 114.234 229.719 114.234C227.635 114.234 225.828 113.531 224.297 112.125C223.536 111.427 222.927 110.568 222.469 109.547C222.01 108.526 221.781 107.406 221.781 106.188C221.781 103.812 222.562 101.828 224.125 100.234C225.688 98.6302 227.656 97.8281 230.031 97.8281C232.01 97.8281 233.578 98.3125 234.734 99.2812C235.901 100.24 236.484 101.422 236.484 102.828C236.484 104.234 235.917 105.286 234.781 105.984C233.646 106.672 231.49 107.016 228.312 107.016C227.469 107.016 226.219 106.984 224.562 106.922C224.75 108.536 225.375 109.75 226.438 110.562C227.5 111.365 228.609 111.766 229.766 111.766C230.922 111.766 231.833 111.641 232.5 111.391C233.177 111.13 233.661 110.682 233.953 110.047C234.255 109.401 234.641 109.078 235.109 109.078ZM251.969 101.453C250.958 100.682 249.714 100.297 248.234 100.297C246.766 100.297 245.521 100.833 244.5 101.906C243.49 102.979 242.984 104.385 242.984 106.125C242.984 107.854 243.448 109.229 244.375 110.25C245.302 111.26 246.542 111.766 248.094 111.766C249.646 111.766 250.938 111.167 251.969 109.969V101.453ZM252.375 112.266C251.198 113.578 249.615 114.234 247.625 114.234C245.635 114.234 243.911 113.516 242.453 112.078C240.995 110.63 240.266 108.693 240.266 106.266C240.266 103.828 241.062 101.812 242.656 100.219C244.25 98.625 246.25 97.8281 248.656 97.8281C249.885 97.8281 250.99 98.0938 251.969 98.625V92.8594C251.969 92.4531 251.932 92.1979 251.859 92.0938C251.797 91.9896 251.703 91.9375 251.578 91.9375L250.234 92.125C249.818 92.125 249.474 92.0208 249.203 91.8125C248.943 91.6042 248.812 91.3125 248.812 90.9375C248.812 90.1458 249.38 89.6927 250.516 89.5781C251.286 89.5052 251.859 89.4062 252.234 89.2812C252.62 89.1562 253.031 89.0938 253.469 89.0938C254.271 89.0938 254.672 89.5938 254.672 90.5938V107.828C254.672 109.245 254.729 110.198 254.844 110.688C254.958 111.167 255.172 111.505 255.484 111.703C256.026 112.057 256.297 112.458 256.297 112.906C256.297 113.792 255.76 114.234 254.688 114.234C253.625 114.234 252.854 113.578 252.375 112.266Z" fill="#535353"/>
</svg>
