<svg width="800" height="800" viewBox="0 0 800 800" fill="none" xmlns="http://www.w3.org/2000/svg">
<path d="M639.607 113.435H160.387C137.329 113.435 118.568 132.183 118.568 155.239V644.791C118.568 667.827 137.316 686.588 160.387 686.588H639.609C662.661 686.588 681.421 667.84 681.421 644.791V155.239C681.409 132.183 662.659 113.435 639.607 113.435ZM718.025 0H81.9668C40.4809 0 6.83936 33.6437 6.83936 75.1338V724.864C6.83936 766.361 40.483 799.998 81.9689 799.998H718.037C759.523 799.998 793.165 766.361 793.165 724.864V75.1338C793.161 33.6437 759.521 0 718.025 0ZM711.037 644.765C711.037 684.139 678.996 716.193 639.609 716.193H160.387C121.004 716.193 88.9503 684.15 88.9503 644.765V155.239C88.9503 115.871 120.993 83.8176 160.387 83.8176H639.609C678.983 83.8176 711.037 115.861 711.037 155.239V644.765Z" fill="black"/>
<path d="M215.25 460C209 460 205.875 456.562 205.875 449.688V201.438C205.875 194.562 209 191.125 215.25 191.125H305.812C341.938 191.125 368.062 197.875 384.188 211.375C400.438 224.875 408.562 242.688 408.562 264.812C408.562 284.312 402 300.688 388.875 313.938C375.875 327.188 357.312 334.812 333.188 336.812V337.188C345.938 346.688 354.375 353.938 358.5 358.938C362.625 363.812 367.25 370.438 372.375 378.812L414.75 447.625C419.875 455.875 418.75 460 411.375 460H390C384.125 460 379.75 457.562 376.875 452.688L337.875 385.75C332.25 376.125 324.188 366.688 313.688 357.438C303.188 348.188 290.125 343.562 274.5 343.562H241.875V449.688C241.875 456.562 238.75 460 232.5 460H215.25ZM241.875 312.812H296.062C320.438 312.812 339.188 309.625 352.312 303.25C365.438 296.75 372 283.188 372 262.562C372 246.812 366 236.125 354 230.5C342 224.75 325.688 221.875 305.062 221.875H241.875V312.812Z" fill="white"/>
</svg>
