<svg width="1152" height="651" viewBox="0 0 1152 651" fill="none" xmlns="http://www.w3.org/2000/svg">
<rect width="1152" height="648" fill="url(#paint0_linear_42_133)"/>
<rect y="423" width="1152" height="228" fill="#1599BE"/>
<rect x="59" y="526" width="240" height="4" fill="#D9D9D9"/>
<rect x="387" y="580" width="131" height="4" fill="#D9D9D9"/>
<rect x="126" y="625" width="39" height="4" fill="#D9D9D9"/>
<rect x="732" y="607" width="240" height="4" fill="#D9D9D9"/>
<rect x="875" y="495" width="199" height="4" fill="#D9D9D9"/>
<rect y="381" width="434" height="42" fill="#5E6A80"/>
<rect y="375" width="434" height="10" fill="#4F6E7D"/>
<rect x="25" y="385" width="9" height="38" fill="#8E8E8E"/>
<rect x="170" y="385" width="9" height="38" fill="#8E8E8E"/>
<rect x="226" y="385" width="9" height="38" fill="#8E8E8E"/>
<rect x="284" y="385" width="9" height="38" fill="#8E8E8E"/>
<rect x="313" y="385" width="9" height="38" fill="#8E8E8E"/>
<rect x="342" y="385" width="9" height="38" fill="#8E8E8E"/>
<rect x="371" y="385" width="9" height="38" fill="#8E8E8E"/>
<rect x="400" y="385" width="9" height="38" fill="#8E8E8E"/>
<rect x="255" y="385" width="9" height="38" fill="#8E8E8E"/>
<rect x="199" y="385" width="9" height="38" fill="#8E8E8E"/>
<rect x="141" y="385" width="9" height="38" fill="#8E8E8E"/>
<rect x="112" y="385" width="9" height="38" fill="#8E8E8E"/>
<rect x="83" y="385" width="9" height="38" fill="#8E8E8E"/>
<rect x="54" y="385" width="9" height="38" fill="#8E8E8E"/>
<path d="M741 310L743 410H619V299L611.5 288.5H655L670.5 299H693V310H741Z" fill="#D9D9D9"/>
<path d="M178.99 462C406.67 462.39 538.82 463.109 766.5 463.5C760.29 474.755 743 484 730.5 487C724.5 487 167 487.5 167 487.5C167 487.5 179.5 471 178.99 462Z" fill="#BA3C3C"/>
<path d="M178.99 462C406.67 462.39 538.82 463.109 766.5 463.5C782.316 441.24 802.5 406 802.5 406H604.5L590 418.5H350.5L339.5 406H263.5L252 393.5H207.5L202 383H114C114 383 153.61 431.149 178.99 462Z" fill="#15344D"/>
<circle cx="198.5" cy="370.5" r="6.5" fill="#808080"/>
<rect x="189" y="362" width="19" height="9" fill="#DFD02B"/>
<rect x="192" y="179" width="13" height="183" fill="#DFD02B"/>
<rect x="409" y="158" width="25" height="36" fill="#DFD02B"/>
<rect x="405" y="207" width="35" height="4" fill="#DFD02B"/>
<rect x="414" y="194" width="2" height="13" fill="#747474"/>
<rect x="427" y="194" width="2" height="13" fill="#747474"/>
<circle cx="274.5" cy="370.5" r="6.5" fill="#808080"/>
<rect x="265" y="362" width="19" height="9" fill="#DFD02B"/>
<rect x="264" y="89" width="21" height="11" fill="#DFD02B"/>
<rect x="268" y="99" width="13" height="263" fill="#DFD02B"/>
<rect x="204" y="304" width="64" height="12" fill="#DFD02B"/>
<path d="M97 172.5H111.09L136.921 165H441.5L453 169V179H97V172.5Z" fill="#DFD02B"/>
<path d="M268 185L205 299V290.5L266 179.5H268V185Z" fill="#DFD02B" stroke="#DFD02B"/>
<rect x="100" y="179" width="32" height="15" fill="#696969"/>
<rect x="151" y="139" width="32" height="26" fill="#696969"/>
<rect x="146" y="179" width="42" height="15" fill="#696969"/>
<path d="M478.615 210.566H366.73V263.695H478.615V210.566Z" fill="#094293"/>
<path d="M476.26 263.434C476.549 263.434 476.783 263.082 476.783 262.648C476.783 262.215 476.549 261.863 476.26 261.863C475.971 261.863 475.736 262.215 475.736 262.648C475.736 263.082 475.971 263.434 476.26 263.434Z" fill="black"/>
<path d="M369.086 262.583C369.086 263.017 368.852 263.368 368.562 263.368C368.273 263.368 368.039 263.017 368.039 262.583C368.039 262.149 368.273 261.798 368.562 261.798C368.852 261.798 369.086 262.149 369.086 262.583Z" fill="black"/>
<path d="M368.824 212.398C369.113 212.398 369.348 212.047 369.348 211.613C369.348 211.18 369.113 210.828 368.824 210.828C368.535 210.828 368.301 211.18 368.301 211.613C368.301 212.047 368.535 212.398 368.824 212.398Z" fill="black"/>
<path d="M478.615 261.078H366.73V261.471H478.615V261.078Z" fill="#2B4F89"/>
<path d="M478.615 212.66H366.73V213.053H478.615V212.66Z" fill="#2B4F89"/>
<path d="M371.049 210.566H370.787V263.695H371.049V210.566Z" fill="#001252"/>
<path d="M474.428 210.566H474.166V263.695H474.428V210.566Z" fill="#001252"/>
<path d="M476.979 211.613C476.979 212.047 476.745 212.398 476.456 212.398C476.167 212.398 475.933 212.047 475.933 211.613C475.933 211.18 476.167 210.828 476.456 210.828C476.745 210.828 476.979 211.18 476.979 211.613Z" fill="black"/>
<path d="M407.689 261.471H401.016V263.695H407.689V261.471Z" fill="black"/>
<path d="M444.854 261.471H438.18V263.695H444.854V261.471Z" fill="black"/>
<path d="M474.133 213.053H472.563V261.078H474.133V213.053Z" fill="#16539C"/>
<path d="M471.647 213.053H470.208V261.078H471.647V213.053Z" fill="#1E5CA0"/>
<path d="M472.563 213.053H471.647V261.078H472.563V213.053Z" fill="#084192"/>
<path d="M470.208 213.053H468.768V261.078H470.208V213.053Z" fill="#0E4592"/>
<path d="M468.768 213.053H467.329V261.078H468.768V213.053Z" fill="#215FA1"/>
<path d="M467.329 213.053H465.889V261.078H467.329V213.053Z" fill="#0A4394"/>
<path d="M466.02 213.053H464.581V261.078H466.02V213.053Z" fill="#1E5CA2"/>
<path d="M464.581 213.053H463.141V261.078H464.581V213.053Z" fill="#104897"/>
<path d="M463.141 213.053H461.702V261.078H463.141V213.053Z" fill="#1C5BA3"/>
<path d="M461.702 213.053H460.262V261.078H461.702V213.053Z" fill="#2A61A5"/>
<path d="M460.393 213.053H458.954V261.078H460.393V213.053Z" fill="#104799"/>
<path d="M458.954 213.053H457.514V261.078H458.954V213.053Z" fill="#2962A5"/>
<path d="M457.514 213.053H456.075V261.078H457.514V213.053Z" fill="#0C4598"/>
<path d="M456.075 213.053H454.635V261.078H456.075V213.053Z" fill="#2760A8"/>
<path d="M454.766 213.053H453.327V261.078H454.766V213.053Z" fill="#104799"/>
<path d="M453.327 213.053H451.887V261.078H453.327V213.053Z" fill="#2C60A7"/>
<path d="M451.887 213.053H450.448V261.078H451.887V213.053Z" fill="#104799"/>
<path d="M450.448 213.053H449.008V261.078H450.448V213.053Z" fill="#2C60A7"/>
<path d="M449.139 213.053H447.7V261.078H449.139V213.053Z" fill="#104799"/>
<path d="M447.7 213.053H446.26V261.078H447.7V213.053Z" fill="#2C60A7"/>
<path d="M446.26 213.053H444.821V261.078H446.26V213.053Z" fill="#104799"/>
<path d="M444.821 213.053H443.381V261.078H444.821V213.053Z" fill="#2C60A7"/>
<path d="M443.512 213.053H442.073V261.078H443.512V213.053Z" fill="#104799"/>
<path d="M442.073 213.053H440.633V261.078H442.073V213.053Z" fill="#2D60A3"/>
<path d="M440.633 213.053H439.194V261.078H440.633V213.053Z" fill="#0D4195"/>
<path d="M439.194 213.053H437.754V261.078H439.194V213.053Z" fill="#2D60A3"/>
<path d="M437.885 213.053H436.446V261.078H437.885V213.053Z" fill="#144498"/>
<path d="M436.446 213.053H435.006V261.078H436.446V213.053Z" fill="#2D60A3"/>
<path d="M435.006 213.053H433.567V261.078H435.006V213.053Z" fill="#0E4395"/>
<path d="M433.567 213.053H432.127V261.078H433.567V213.053Z" fill="#2D60A3"/>
<path d="M432.258 213.053H430.819V261.078H432.258V213.053Z" fill="#124797"/>
<path d="M430.819 213.053H429.379V261.078H430.819V213.053Z" fill="#2D60A3"/>
<path d="M429.379 213.053H427.94V261.078H429.379V213.053Z" fill="#124797"/>
<path d="M427.94 213.053H426.5V261.078H427.94V213.053Z" fill="#245BA3"/>
<path d="M426.631 213.053H425.192V261.078H426.631V213.053Z" fill="#0E4495"/>
<path d="M425.192 213.053H423.752V261.078H425.192V213.053Z" fill="#2359A4"/>
<path d="M423.752 213.053H422.313V261.078H423.752V213.053Z" fill="#0E4495"/>
<path d="M422.313 213.053H420.874V261.078H422.313V213.053Z" fill="#2359A4"/>
<path d="M421.004 213.053H419.565V261.078H421.004V213.053Z" fill="#0E4495"/>
<path d="M419.565 213.053H418.125V261.078H419.565V213.053Z" fill="#2359A4"/>
<path d="M418.125 213.053H416.686V261.078H418.125V213.053Z" fill="#0E4495"/>
<path d="M416.686 213.053H415.247V261.078H416.686V213.053Z" fill="#2359A4"/>
<path d="M415.377 213.053H413.938V261.078H415.377V213.053Z" fill="#0E4495"/>
<path d="M413.938 213.053H412.499V261.078H413.938V213.053Z" fill="#2359A4"/>
<path d="M412.499 213.053H411.059V261.078H412.499V213.053Z" fill="#0E4495"/>
<path d="M411.059 213.053H409.62V261.078H411.059V213.053Z" fill="#2359A4"/>
<path d="M409.75 213.053H408.311V261.078H409.75V213.053Z" fill="#0E4495"/>
<path d="M408.311 213.053H406.872V261.078H408.311V213.053Z" fill="#2359A4"/>
<path d="M406.872 213.053H405.432V261.078H406.872V213.053Z" fill="#0E4495"/>
<path d="M405.432 213.053H403.993V261.078H405.432V213.053Z" fill="#2359A4"/>
<path d="M404.124 213.053H402.684V261.078H404.124V213.053Z" fill="#0E4495"/>
<path d="M402.684 213.053H401.245V261.078H402.684V213.053Z" fill="#2359A4"/>
<path d="M401.245 213.053H399.805V261.078H401.245V213.053Z" fill="#0E4495"/>
<path d="M399.805 213.053H398.366V261.078H399.805V213.053Z" fill="#2359A4"/>
<path d="M398.497 213.053H397.057V261.078H398.497V213.053Z" fill="#0E4495"/>
<path d="M397.057 213.053H395.618V261.078H397.057V213.053Z" fill="#2359A4"/>
<path d="M395.618 213.053H394.178V261.078H395.618V213.053Z" fill="#0E4495"/>
<path d="M394.178 213.053H392.739V261.078H394.178V213.053Z" fill="#2359A4"/>
<path d="M392.87 213.053H391.43V261.078H392.87V213.053Z" fill="#0E4495"/>
<path d="M391.43 213.053H389.991V261.078H391.43V213.053Z" fill="#2359A4"/>
<path d="M389.991 213.053H388.551V261.078H389.991V213.053Z" fill="#0E4495"/>
<path d="M388.551 213.053H387.112V261.078H388.551V213.053Z" fill="#2359A4"/>
<path d="M387.112 213.053H385.672V261.078H387.112V213.053Z" fill="#0E4495"/>
<path d="M385.672 213.053H384.233V261.078H385.672V213.053Z" fill="#2359A4"/>
<path d="M384.364 213.053H382.924V261.078H384.364V213.053Z" fill="#0E4495"/>
<path d="M382.924 213.053H381.485V261.078H382.924V213.053Z" fill="#2359A4"/>
<path d="M381.485 213.053H380.045V261.078H381.485V213.053Z" fill="#0E4495"/>
<path d="M380.045 213.053H378.606V261.078H380.045V213.053Z" fill="#2359A4"/>
<path d="M378.737 213.053H377.297V261.078H378.737V213.053Z" fill="#0E4495"/>
<path d="M377.297 213.053H375.858V261.078H377.297V213.053Z" fill="#2359A4"/>
<path d="M375.858 213.053H374.418V261.078H375.858V213.053Z" fill="#0E4495"/>
<path d="M374.418 213.053H372.979V261.078H374.418V213.053Z" fill="#2359A4"/>
<path d="M372.979 213.053H371.016V261.078H372.979V213.053Z" fill="#0E4495"/>
<path d="M373.143 210.566H371.049V212.66H373.143V210.566Z" fill="#FBB512"/>
<path d="M375.236 210.566H373.143V212.66H375.236V210.566Z" fill="#150F0A"/>
<path d="M377.33 210.566H375.236V212.66H377.33V210.566Z" fill="#FBB512"/>
<path d="M379.424 210.566H377.33V212.66H379.424V210.566Z" fill="#150F0A"/>
<path d="M381.518 210.566H379.424V212.66H381.518V210.566Z" fill="#FBB512"/>
<path d="M383.611 210.566H381.518V212.66H383.611V210.566Z" fill="#150F0A"/>
<path d="M463.697 210.566H461.604V212.66H463.697V210.566Z" fill="#FBB512"/>
<path d="M465.791 210.566H463.697V212.66H465.791V210.566Z" fill="#150F0A"/>
<path d="M467.885 210.566H465.791V212.66H467.885V210.566Z" fill="#FBB512"/>
<path d="M469.979 210.566H467.885V212.66H469.979V210.566Z" fill="#150F0A"/>
<path d="M472.072 210.566H469.979V212.66H472.072V210.566Z" fill="#FBB512"/>
<path d="M474.166 210.566H472.072V212.66H474.166V210.566Z" fill="#150F0A"/>
<path d="M462.585 229.476H460.753V232.224H462.585V229.476Z" fill="#F2C20C" stroke="black"/>
<path d="M458.261 220.905H458.298V221.951H458.162V220.998L458.261 220.905ZM457.896 221.234V221.094L458.261 220.905V221.044L457.896 221.234ZM457.898 221.951V221.838H458.55V221.951H457.898ZM458.261 223.13H458.298V224.176H458.162V223.223L458.261 223.13ZM457.896 223.458V223.318L458.261 223.13V223.268L457.896 223.458ZM457.898 224.176V224.063H458.55V224.176H457.898ZM457.802 226.126V226.049L457.863 226.025H458.358L458.369 226.016H458.636V226.126H457.802ZM457.802 226.068V226.028L458.248 225.372H458.336L458.344 225.416L457.903 226.063L457.934 225.978V226.066L457.802 226.068ZM458.432 225.372V226.4H458.298V226.075L458.309 226.063V225.372H458.432ZM457.936 227.596H458.501V227.71H457.962L457.936 227.692V227.596ZM457.922 227.596H458.047L458.008 228.057L457.98 228.157L457.887 228.143L457.882 228.135L457.922 227.596ZM458.561 228.262C458.561 228.328 458.544 228.387 458.51 228.438C458.478 228.488 458.425 228.53 458.35 228.562C458.276 228.594 458.177 228.615 458.053 228.625L457.871 228.641L457.859 228.523L458.046 228.506C458.142 228.496 458.217 228.481 458.272 228.46C458.327 228.439 458.366 228.412 458.388 228.379C458.411 228.345 458.423 228.306 458.423 228.261C458.423 228.221 458.414 228.187 458.396 228.159C458.379 228.13 458.356 228.109 458.327 228.096C458.298 228.081 458.267 228.074 458.233 228.074C458.191 228.074 458.148 228.081 458.105 228.096C458.063 228.109 458.022 228.13 457.98 228.157L457.97 228.068C458.015 228.032 458.061 228.006 458.108 227.989C458.156 227.972 458.205 227.964 458.258 227.964C458.312 227.964 458.362 227.975 458.408 227.998C458.454 228.022 458.491 228.056 458.518 228.101C458.547 228.145 458.561 228.198 458.561 228.262ZM458.333 230.32L458.071 230.313C458.01 230.295 457.961 230.266 457.925 230.225C457.888 230.183 457.87 230.135 457.87 230.08C457.87 230.023 457.884 229.973 457.912 229.931C457.941 229.888 457.981 229.855 458.032 229.832C458.083 229.809 458.14 229.798 458.204 229.798C458.268 229.798 458.325 229.809 458.374 229.832C458.423 229.854 458.462 229.886 458.49 229.928C458.518 229.97 458.532 230.019 458.532 230.077C458.532 230.132 458.514 230.18 458.477 230.222C458.441 230.263 458.393 230.294 458.333 230.313V230.32ZM458.203 230.269C458.238 230.269 458.271 230.261 458.3 230.245C458.329 230.229 458.353 230.208 458.371 230.181C458.388 230.152 458.397 230.12 458.397 230.083C458.397 230.029 458.379 229.986 458.341 229.955C458.304 229.922 458.258 229.906 458.201 229.906C458.145 229.906 458.097 229.922 458.06 229.955C458.023 229.986 458.005 230.03 458.005 230.086C458.005 230.123 458.014 230.155 458.032 230.182C458.05 230.209 458.074 230.231 458.104 230.247C458.134 230.261 458.167 230.269 458.203 230.269ZM458.2 230.873C458.13 230.873 458.069 230.861 458.014 230.837C457.96 230.813 457.917 230.779 457.885 230.735C457.854 230.691 457.838 230.639 457.838 230.578C457.838 230.517 457.86 230.464 457.903 230.418C457.946 230.372 458.002 230.339 458.071 230.32V230.313L458.333 230.32C458.402 230.338 458.458 230.37 458.499 230.416C458.542 230.461 458.564 230.514 458.564 230.575C458.564 230.636 458.548 230.688 458.515 230.733C458.484 230.777 458.441 230.812 458.386 230.837C458.332 230.861 458.27 230.873 458.2 230.873ZM458.203 230.765C458.267 230.765 458.32 230.748 458.363 230.713C458.407 230.677 458.429 230.629 458.429 230.569C458.429 230.529 458.418 230.494 458.397 230.465C458.378 230.435 458.35 230.412 458.316 230.396C458.282 230.379 458.244 230.371 458.201 230.371C458.159 230.371 458.121 230.379 458.086 230.396C458.052 230.413 458.024 230.436 458.003 230.467C457.983 230.497 457.973 230.532 457.973 230.572C457.973 230.63 457.995 230.677 458.038 230.713C458.082 230.748 458.137 230.765 458.203 230.765ZM457.802 232.799V232.723L457.863 232.699H458.358L458.369 232.69H458.636V232.799H457.802ZM457.802 232.741V232.702L458.248 232.046H458.336L458.344 232.09L457.903 232.737L457.934 232.652V232.74L457.802 232.741ZM458.432 232.046V233.074H458.298V232.749L458.309 232.737V232.046H458.432ZM458.261 234.253H458.298V235.299H458.162V234.346L458.261 234.253ZM457.896 234.581V234.441L458.261 234.253V234.391L457.896 234.581ZM457.898 235.299V235.186H458.55V235.299H457.898ZM457.852 237.523V237.453L457.945 237.41H458.573V237.523H457.852ZM458.545 236.749C458.545 236.778 458.541 236.804 458.534 236.829C458.527 236.855 458.514 236.881 458.496 236.91C458.479 236.938 458.452 236.971 458.418 237.01C458.384 237.048 458.34 237.094 458.286 237.148L457.994 237.443L458.032 237.363V237.467L457.852 237.469V237.429L458.184 237.085C458.232 237.035 458.27 236.994 458.298 236.961C458.328 236.928 458.35 236.9 458.366 236.877C458.382 236.853 458.392 236.833 458.397 236.814C458.403 236.795 458.405 236.775 458.405 236.754C458.405 236.704 458.39 236.663 458.36 236.633C458.33 236.603 458.287 236.588 458.229 236.588C458.195 236.588 458.162 236.593 458.132 236.605C458.103 236.615 458.07 236.634 458.035 236.66C458 236.686 457.957 236.723 457.906 236.771L457.831 236.679C457.886 236.625 457.936 236.584 457.98 236.555C458.024 236.524 458.066 236.503 458.107 236.49C458.148 236.478 458.191 236.471 458.236 236.471C458.296 236.471 458.35 236.483 458.396 236.506C458.442 236.529 458.478 236.561 458.504 236.603C458.531 236.644 458.545 236.693 458.545 236.749ZM458.206 239.184L458.088 239.162C458.109 239.155 458.131 239.149 458.154 239.145C458.177 239.141 458.201 239.139 458.225 239.139C458.305 239.139 458.37 239.152 458.419 239.18C458.469 239.206 458.504 239.24 458.526 239.282C458.549 239.324 458.561 239.367 458.561 239.412C458.561 239.474 458.544 239.529 458.51 239.577C458.478 239.624 458.425 239.663 458.35 239.693C458.277 239.723 458.18 239.743 458.06 239.751L457.873 239.764L457.862 239.643L458.05 239.629C458.144 239.622 458.217 239.61 458.27 239.591C458.325 239.572 458.363 239.548 458.386 239.517C458.409 239.487 458.421 239.452 458.421 239.414C458.421 239.362 458.402 239.321 458.363 239.291C458.325 239.26 458.262 239.244 458.173 239.244C458.149 239.244 458.126 239.245 458.104 239.247C458.082 239.249 458.059 239.252 458.035 239.257L458.01 239.194L458.368 238.798L458.331 238.88V238.773H458.514V238.806L458.167 239.178L458.206 239.096V239.184ZM457.838 238.833V238.72H458.514V238.781L458.444 238.833H457.838ZM457.802 241.698V241.621L457.863 241.597H458.358L458.369 241.588H458.636V241.698H457.802ZM457.802 241.64V241.601L458.248 240.944H458.336L458.344 240.988L457.903 241.635L457.934 241.55V241.638L457.802 241.64ZM458.432 240.944V241.973H458.298V241.648L458.309 241.635V240.944H458.432ZM458.429 243.532C458.429 243.474 458.419 243.425 458.399 243.384C458.379 243.343 458.352 243.312 458.317 243.29C458.284 243.268 458.245 243.257 458.201 243.257C458.155 243.257 458.115 243.268 458.082 243.29C458.048 243.312 458.022 243.341 458.003 243.379C457.985 243.416 457.977 243.458 457.977 243.506C457.977 243.574 457.996 243.629 458.036 243.671C458.077 243.713 458.134 243.734 458.206 243.734C458.249 243.734 458.292 243.73 458.335 243.722C458.378 243.712 458.422 243.697 458.468 243.678L458.426 243.78C458.378 243.801 458.333 243.816 458.292 243.825C458.252 243.834 458.213 243.838 458.174 243.838C458.107 243.838 458.048 243.824 457.997 243.797C457.947 243.77 457.907 243.731 457.879 243.681C457.851 243.63 457.837 243.571 457.837 243.503C457.837 243.433 457.852 243.371 457.884 243.318C457.916 243.264 457.961 243.221 458.017 243.191C458.074 243.16 458.139 243.145 458.214 243.145C458.276 243.145 458.335 243.16 458.388 243.189C458.442 243.218 458.486 243.261 458.518 243.318C458.551 243.373 458.567 243.443 458.567 243.525C458.567 243.592 458.558 243.655 458.539 243.712C458.521 243.769 458.492 243.825 458.452 243.88C458.414 243.936 458.363 243.993 458.3 244.053L458.148 244.197H457.961L457.959 244.194L458.179 243.998C458.239 243.946 458.286 243.894 458.322 243.844C458.359 243.793 458.385 243.741 458.402 243.69C458.42 243.639 458.429 243.586 458.429 243.532ZM457.936 245.393H458.501V245.506H457.962L457.936 245.489V245.393ZM457.922 245.393H458.047L458.008 245.853L457.98 245.954L457.887 245.94L457.882 245.932L457.922 245.393ZM458.561 246.059C458.561 246.125 458.544 246.184 458.51 246.235C458.478 246.285 458.425 246.327 458.35 246.359C458.276 246.391 458.177 246.411 458.053 246.422L457.871 246.438L457.859 246.32L458.046 246.303C458.142 246.293 458.217 246.278 458.272 246.257C458.327 246.236 458.366 246.209 458.388 246.175C458.411 246.142 458.423 246.103 458.423 246.058C458.423 246.018 458.414 245.984 458.396 245.956C458.379 245.927 458.356 245.906 458.327 245.893C458.298 245.878 458.267 245.871 458.233 245.871C458.191 245.871 458.148 245.878 458.105 245.893C458.063 245.906 458.022 245.927 457.98 245.954L457.97 245.864C458.015 245.829 458.061 245.803 458.108 245.786C458.156 245.769 458.205 245.761 458.258 245.761C458.312 245.761 458.362 245.772 458.408 245.795C458.454 245.818 458.491 245.852 458.518 245.897C458.547 245.941 458.561 245.995 458.561 246.059ZM458.261 247.601H458.298V248.647H458.162V247.693L458.261 247.601ZM457.896 247.929V247.789L458.261 247.601V247.739L457.896 247.929ZM457.898 248.647V248.533H458.55V248.647H457.898ZM457.852 250.871V250.8L457.945 250.758H458.573V250.871H457.852ZM458.545 250.097C458.545 250.125 458.541 250.152 458.534 250.177C458.527 250.202 458.514 250.229 458.496 250.257C458.479 250.285 458.452 250.319 458.418 250.358C458.384 250.395 458.34 250.441 458.286 250.496L457.994 250.791L458.032 250.711V250.815L457.852 250.816V250.777L458.184 250.433C458.232 250.383 458.27 250.341 458.298 250.309C458.328 250.275 458.35 250.247 458.366 250.224C458.382 250.201 458.392 250.18 458.397 250.161C458.403 250.143 458.405 250.123 458.405 250.102C458.405 250.051 458.39 250.011 458.36 249.981C458.33 249.95 458.287 249.935 458.229 249.935C458.195 249.935 458.162 249.941 458.132 249.953C458.103 249.963 458.07 249.981 458.035 250.007C458 250.034 457.957 250.071 457.906 250.119L457.831 250.026C457.886 249.973 457.936 249.932 457.98 249.902C458.024 249.872 458.066 249.85 458.107 249.838C458.148 249.825 458.191 249.819 458.236 249.819C458.296 249.819 458.35 249.831 458.396 249.854C458.442 249.877 458.478 249.909 458.504 249.951C458.531 249.992 458.545 250.04 458.545 250.097Z" fill="white"/>
<path d="M462.123 217.782H462.431C462.533 217.782 462.613 217.808 462.669 217.859C462.726 217.909 462.754 217.977 462.754 218.061C462.754 218.098 462.749 218.133 462.739 218.167C462.729 218.199 462.711 218.228 462.684 218.255C462.657 218.281 462.621 218.304 462.574 218.324C462.527 218.343 462.466 218.357 462.391 218.366V218.393H462.123V218.317L462.264 218.3C462.363 218.289 462.437 218.272 462.487 218.252C462.538 218.231 462.572 218.205 462.589 218.176C462.608 218.146 462.618 218.111 462.618 218.072C462.618 218.017 462.6 217.973 462.566 217.941C462.532 217.908 462.479 217.892 462.407 217.892H462.123V217.782ZM462.055 217.782H462.192V218.811H462.055V217.782ZM462.819 218.804V218.811H462.646L462.428 218.539C462.406 218.51 462.385 218.486 462.366 218.468C462.347 218.45 462.328 218.437 462.307 218.427C462.286 218.418 462.261 218.411 462.231 218.407C462.203 218.403 462.167 218.4 462.123 218.398V218.376H462.391C462.413 218.384 462.433 218.393 462.45 218.404C462.467 218.413 462.486 218.427 462.505 218.445C462.523 218.461 462.546 218.485 462.572 218.517L462.819 218.804ZM462.06 220.007H462.197V221.035H462.06V220.007ZM462.079 220.12V220.007H462.746V220.12H462.079ZM462.079 221.035V220.922H462.757V221.035H462.079ZM462.079 220.572V220.459H462.662V220.572H462.079ZM462.39 223.167C462.467 223.167 462.524 223.151 462.561 223.12C462.598 223.088 462.616 223.044 462.616 222.988C462.616 222.961 462.61 222.937 462.599 222.916C462.588 222.895 462.57 222.876 462.544 222.859C462.518 222.842 462.481 222.826 462.435 222.812L462.324 222.776C462.228 222.746 462.159 222.706 462.118 222.658C462.077 222.61 462.057 222.55 462.057 222.479C462.057 222.433 462.07 222.39 462.095 222.349C462.121 222.308 462.16 222.275 462.211 222.25C462.263 222.224 462.329 222.211 462.409 222.211C462.464 222.211 462.516 222.215 462.563 222.223C462.61 222.232 462.664 222.244 462.724 222.261L462.701 222.379C462.638 222.36 462.583 222.346 462.534 222.338C462.487 222.329 462.444 222.324 462.406 222.324C462.329 222.324 462.275 222.338 462.242 222.366C462.211 222.395 462.195 222.429 462.195 222.47C462.195 222.498 462.2 222.524 462.211 222.547C462.222 222.57 462.241 222.59 462.267 222.608C462.294 222.625 462.33 222.641 462.377 222.657L462.49 222.691C462.586 222.722 462.653 222.759 462.693 222.803C462.734 222.847 462.754 222.906 462.754 222.982C462.754 223.044 462.74 223.097 462.71 223.142C462.682 223.186 462.641 223.22 462.586 223.244C462.532 223.268 462.466 223.28 462.388 223.28C462.33 223.28 462.27 223.274 462.209 223.261C462.15 223.249 462.085 223.229 462.016 223.203L462.049 223.087C462.116 223.112 462.179 223.132 462.238 223.147C462.296 223.16 462.347 223.167 462.39 223.167ZM462.321 224.519H462.457V225.484H462.321V224.519ZM461.986 224.569V224.456H462.79V224.569H461.986Z" fill="white"/>
<path d="M380.86 232.964H384.143C385.238 232.964 386.086 233.238 386.689 233.785C387.292 234.321 387.594 235.041 387.594 235.946C387.594 236.337 387.538 236.711 387.426 237.068C387.326 237.414 387.13 237.727 386.84 238.006C386.561 238.285 386.17 238.531 385.668 238.743C385.165 238.944 384.517 239.095 383.725 239.195V239.48H380.86V238.676L382.368 238.492C383.418 238.369 384.21 238.196 384.746 237.973C385.282 237.749 385.645 237.481 385.835 237.169C386.036 236.845 386.137 236.476 386.137 236.063C386.137 235.471 385.952 235.002 385.584 234.656C385.227 234.31 384.663 234.137 383.892 234.137H380.86V232.964ZM380.14 232.964H381.597V243.936H380.14V232.964ZM388.281 243.869V243.936H386.438L384.11 241.038C383.875 240.725 383.658 240.474 383.457 240.284C383.256 240.094 383.043 239.949 382.82 239.849C382.597 239.748 382.329 239.675 382.016 239.631C381.715 239.586 381.329 239.553 380.86 239.53V239.296H383.725C383.959 239.385 384.166 239.486 384.344 239.597C384.534 239.698 384.73 239.843 384.931 240.033C385.132 240.211 385.372 240.468 385.651 240.803L388.281 243.869ZM394.817 242.88L396.425 242.931L396.375 244.053L394.399 244.019C392.891 243.997 391.797 243.651 391.116 242.981C390.434 242.311 390.094 241.373 390.094 240.167C390.094 239.34 390.267 238.609 390.613 237.973C390.97 237.325 391.451 236.817 392.054 236.448C392.668 236.08 393.366 235.896 394.147 235.896C394.907 235.896 395.566 236.052 396.124 236.365C396.682 236.666 397.112 237.118 397.414 237.721C397.726 238.313 397.883 239.056 397.883 239.949C397.883 240.072 397.877 240.184 397.866 240.284C397.855 240.385 397.844 240.474 397.832 240.552H390.814V239.48H397.062L396.476 239.882C396.476 238.877 396.263 238.151 395.839 237.705C395.415 237.258 394.851 237.035 394.147 237.035C393.656 237.035 393.209 237.157 392.807 237.403C392.417 237.638 392.098 237.984 391.853 238.442C391.618 238.899 391.501 239.458 391.501 240.117C391.501 240.731 391.613 241.239 391.836 241.641C392.059 242.043 392.417 242.344 392.908 242.545C393.399 242.746 394.036 242.858 394.817 242.88ZM407.87 241.758C407.87 242.205 407.736 242.607 407.468 242.964C407.2 243.321 406.776 243.612 406.195 243.835C405.626 244.047 404.889 244.153 403.984 244.153C403.493 244.153 402.985 244.125 402.46 244.07C401.935 244.025 401.349 243.941 400.701 243.818L400.919 242.596C401.511 242.718 402.08 242.813 402.627 242.88C403.186 242.936 403.643 242.964 404.001 242.964C404.928 242.964 405.559 242.864 405.894 242.663C406.24 242.45 406.413 242.182 406.413 241.859C406.413 241.591 406.318 241.373 406.128 241.205C405.938 241.027 405.536 240.865 404.922 240.72L403.465 240.385C402.75 240.206 402.209 240.016 401.84 239.815C401.472 239.614 401.22 239.38 401.086 239.112C400.963 238.832 400.902 238.514 400.902 238.157C400.902 237.509 401.192 236.979 401.773 236.566C402.354 236.141 403.314 235.929 404.654 235.929C405.023 235.929 405.469 235.957 405.994 236.013C406.53 236.069 407.049 236.141 407.552 236.231L407.351 237.453C406.826 237.33 406.323 237.241 405.843 237.185C405.374 237.129 404.972 237.102 404.637 237.102C404.045 237.102 403.582 237.146 403.247 237.236C402.923 237.314 402.694 237.425 402.56 237.571C402.437 237.705 402.376 237.861 402.376 238.04C402.376 238.207 402.41 238.358 402.477 238.492C402.555 238.615 402.7 238.726 402.912 238.827C403.124 238.927 403.437 239.033 403.85 239.145L405.291 239.48C406.005 239.648 406.547 239.837 406.915 240.05C407.284 240.251 407.535 240.491 407.669 240.77C407.803 241.049 407.87 241.378 407.87 241.758ZM413.084 240.971V237.353H410.454V236.147H413.1V233.249H414.491V236.147H417.958V237.353H414.507V240.77C414.507 241.25 414.552 241.63 414.641 241.909C414.731 242.177 414.887 242.372 415.11 242.495C415.345 242.607 415.663 242.674 416.065 242.696L418.427 242.83L418.326 244.053L415.73 243.936C415.049 243.902 414.513 243.79 414.122 243.601C413.742 243.411 413.474 243.109 413.318 242.696C413.162 242.272 413.084 241.697 413.084 240.971ZM424.813 244.187C424.02 244.187 423.317 244.014 422.702 243.668C422.099 243.321 421.625 242.836 421.279 242.21C420.944 241.585 420.776 240.854 420.776 240.016C420.776 239.223 420.949 238.514 421.295 237.889C421.642 237.263 422.122 236.778 422.736 236.432C423.361 236.074 424.076 235.896 424.88 235.896C425.673 235.896 426.371 236.074 426.974 236.432C427.588 236.778 428.062 237.263 428.397 237.889C428.744 238.514 428.917 239.24 428.917 240.066C428.917 240.881 428.744 241.596 428.397 242.21C428.051 242.824 427.565 243.31 426.94 243.668C426.326 244.014 425.617 244.187 424.813 244.187ZM424.846 242.981C425.617 242.981 426.242 242.73 426.722 242.227C427.214 241.713 427.459 240.988 427.459 240.05C427.459 239.447 427.348 238.927 427.124 238.492C426.901 238.045 426.594 237.699 426.203 237.453C425.823 237.208 425.371 237.085 424.846 237.085C424.333 237.085 423.88 237.208 423.49 237.453C423.099 237.688 422.792 238.028 422.568 238.475C422.345 238.911 422.233 239.43 422.233 240.033C422.233 240.948 422.473 241.669 422.954 242.194C423.434 242.718 424.065 242.981 424.846 242.981ZM435.487 237.118C434.929 237.118 434.432 237.241 433.996 237.487C433.572 237.732 433.242 238.073 433.008 238.509C432.773 238.944 432.656 239.441 432.656 239.999C432.656 240.591 432.773 241.11 433.008 241.557C433.242 242.004 433.561 242.35 433.963 242.596C434.376 242.841 434.834 242.964 435.336 242.964C435.749 242.964 436.196 242.897 436.676 242.763C437.167 242.629 437.776 242.367 438.502 241.976L439.122 242.964C438.306 243.444 437.603 243.768 437.011 243.936C436.43 244.103 435.85 244.187 435.269 244.187C434.487 244.187 433.784 244.019 433.159 243.684C432.544 243.349 432.059 242.869 431.701 242.244C431.344 241.607 431.165 240.854 431.165 239.983C431.165 239.212 431.355 238.52 431.735 237.906C432.115 237.28 432.628 236.789 433.276 236.432C433.924 236.074 434.655 235.896 435.47 235.896C435.816 235.896 436.162 235.929 436.509 235.996C436.866 236.052 437.251 236.169 437.664 236.348C438.078 236.526 438.547 236.794 439.071 237.152L438.418 238.207C437.938 237.883 437.525 237.649 437.179 237.504C436.832 237.347 436.525 237.247 436.257 237.202C436.001 237.146 435.744 237.118 435.487 237.118ZM443.565 232.043V243.936H442.141V232.043H443.565ZM443.431 239.748L447.702 236.147H449.545V236.18L444.553 240.301L443.431 239.748ZM443.33 239.882L443.431 239.748L444.586 239.329L449.561 243.902V243.936H447.635L443.33 239.882Z" fill="white"/>
<path d="M267.999 111V103L187 165H194.999L267.999 111Z" fill="#DFD02B" stroke="#DFD02B"/>
<path d="M281 111V103L407 165H394L281 111Z" fill="#DFD02B" stroke="#DFD02B"/>
<defs>
<linearGradient id="paint0_linear_42_133" x1="576" y1="0" x2="576" y2="648" gradientUnits="userSpaceOnUse">
<stop offset="0.149038" stop-color="#5EB9C3"/>
<stop offset="0.649038" stop-color="#D9D9D9"/>
</linearGradient>
</defs>
</svg>
