<svg width="256" height="384" viewBox="0 0 256 384" fill="none" xmlns="http://www.w3.org/2000/svg">
<rect width="256" height="384" fill="url(#paint0_linear_42_132)"/>
<rect y="293" width="256" height="91" fill="#34A234"/>
<path d="M11.6831 268.5L31.6831 238.5L48.1831 213L73.1831 207L79.1831 216.5L90.1831 237L106.683 232L123.683 259L128 305.5H2L11.6831 268.5Z" fill="#575757"/>
<g clip-path="url(#clip0_42_132)">
<path d="M33.344 302.407L38.4093 306.856L44.2777 312.252L44.5336 312.488V307.836L52.7682 312.399V307.833L61.0064 312.274L61.2315 312.396V307.834L69.8454 312.534L69.4693 330.848H18.1523V302.407H33.344Z" fill="#A13F0B" stroke="black" stroke-width="2"/>
<path d="M20.2876 291H23.4899L23.9474 302.255H19.8301L20.2876 291Z" fill="#7C7C7C"/>
<path d="M28.2172 295.867H31.4196L31.8771 302.255H27.7598L28.2172 295.867Z" fill="#7C7C7C"/>
<path d="M34.0117 318.833V325.677H19.9824V318.833H34.0117Z" fill="#3284B7" stroke="black"/>
<path d="M33.8591 322.179H20.1348V322.483H33.8591V322.179Z" fill="black"/>
<path d="M23.6424 318.985H23.3374V325.525H23.6424V318.985Z" fill="black"/>
<path d="M27.1497 318.985H26.8447V325.525H27.1497V318.985Z" fill="black"/>
<path d="M30.657 318.985H30.3521V325.525H30.657V318.985Z" fill="black"/>
<path d="M50.0235 318.833V325.677H35.9941V318.833H50.0235Z" fill="#3284B7" stroke="black"/>
<path d="M49.8708 322.179H36.1465V322.483H49.8708V322.179Z" fill="black"/>
<path d="M39.6541 318.985H39.3491V325.525H39.6541V318.985Z" fill="black"/>
<path d="M43.1614 318.985H42.8564V325.525H43.1614V318.985Z" fill="black"/>
<path d="M46.6688 318.985H46.3638V325.525H46.6688V318.985Z" fill="black"/>
<path d="M67.4074 317.92H53.2256V330.848H67.4074V317.92Z" fill="#878787" stroke="black" stroke-width="2"/>
<path d="M69.6952 312.597H18.3052V312.901H69.6952V312.597Z" fill="black"/>
</g>
<g clip-path="url(#clip1_42_132)">
<path d="M97.8356 333.255L105.044 339.594L113.395 347.285L113.759 347.62V340.992L125.478 347.494V340.987L137.201 347.316L137.522 347.489V340.989L149.78 347.686L149.245 373.783H76.2168V333.255H97.8356Z" fill="#A13F0B" stroke="black" stroke-width="2"/>
<path d="M79.255 317H83.8122L84.4632 333.038H78.604L79.255 317Z" fill="#7C7C7C"/>
<path d="M90.5397 323.935H95.0969L95.7479 333.038H89.8887L90.5397 323.935Z" fill="#7C7C7C"/>
<path d="M98.7861 356.662V366.414H78.8213V356.662H98.7861Z" fill="#3284B7" stroke="black" stroke-width="2"/>
<path d="M98.5689 361.43H79.0381V361.863H98.5689V361.43Z" fill="black"/>
<path d="M84.0292 356.878H83.5952V366.198H84.0292V356.878Z" fill="black"/>
<path d="M89.0204 356.878H88.5864V366.198H89.0204V356.878Z" fill="black"/>
<path d="M94.0117 356.878H93.5776V366.198H94.0117V356.878Z" fill="black"/>
<path d="M121.572 356.662V366.414H101.607V356.662H121.572Z" fill="#3284B7" stroke="black" stroke-width="2"/>
<path d="M121.355 361.43H101.824V361.863H121.355V361.43Z" fill="black"/>
<path d="M106.815 356.878H106.381V366.198H106.815V356.878Z" fill="black"/>
<path d="M111.807 356.878H111.373V366.198H111.807V356.878Z" fill="black"/>
<path d="M116.798 356.878H116.364V366.198H116.798V356.878Z" fill="black"/>
<path d="M146.311 355.361H126.129V373.783H146.311V355.361Z" fill="#878787" stroke="black" stroke-width="2"/>
<path d="M149.566 347.776H76.4341V348.209H149.566V347.776Z" fill="black"/>
</g>
<g clip-path="url(#clip2_42_132)">
<path d="M218.924 263.507H192.075V305.925H218.924V263.507Z" fill="#2478A5" stroke="#5AB4CB"/>
<path d="M198.411 261.552H212.891C213.481 261.552 213.784 261.998 213.941 262.478C214.02 262.715 214.059 262.954 214.079 263.134C214.088 263.224 214.093 263.299 214.096 263.351C214.096 263.353 214.096 263.355 214.096 263.357H197.207C197.207 263.355 197.207 263.353 197.207 263.351C197.209 263.299 197.214 263.224 197.224 263.134C197.244 262.954 197.283 262.715 197.361 262.477C197.518 261.997 197.821 261.552 198.411 261.552Z" fill="#2478A5" stroke="#5AB4CB"/>
<path d="M201.503 259.596H209.95C210.348 259.596 210.643 259.713 210.862 259.885C211.083 260.059 211.232 260.291 211.332 260.528C211.432 260.764 211.483 261.002 211.508 261.181C211.521 261.271 211.527 261.345 211.53 261.397C211.53 261.398 211.53 261.4 211.53 261.401H199.922C199.922 261.4 199.922 261.398 199.922 261.397C199.925 261.345 199.931 261.271 199.944 261.181C199.969 261.002 200.02 260.764 200.12 260.528C200.221 260.291 200.37 260.059 200.59 259.885C200.81 259.713 201.104 259.596 201.503 259.596Z" fill="#2478A5" stroke="#5AB4CB"/>
<path d="M198.637 265.838H195.62V269.9H198.637V265.838Z" fill="#A2DDFE"/>
<path d="M215.682 265.838H212.665V269.9H215.682V265.838Z" fill="#A2DDFE"/>
<path d="M210.101 265.838H207.084V269.9H210.101V265.838Z" fill="#A2DDFE"/>
<path d="M204.369 265.838H201.352V269.9H204.369V265.838Z" fill="#A2DDFE"/>
<path d="M198.637 272.306H195.62V276.368H198.637V272.306Z" fill="#A2DDFE"/>
<path d="M215.682 272.306H212.665V276.368H215.682V272.306Z" fill="#A2DDFE"/>
<path d="M210.101 272.306H207.084V276.368H210.101V272.306Z" fill="#A2DDFE"/>
<path d="M204.369 272.306H201.352V276.368H204.369V272.306Z" fill="#A2DDFE"/>
<path d="M198.637 278.774H195.62V282.836H198.637V278.774Z" fill="#A2DDFE"/>
<path d="M215.682 278.774H212.665V282.836H215.682V278.774Z" fill="#A2DDFE"/>
<path d="M210.101 278.774H207.084V282.836H210.101V278.774Z" fill="#A2DDFE"/>
<path d="M204.369 278.774H201.352V282.836H204.369V278.774Z" fill="#A2DDFE"/>
<path d="M198.486 291.71H195.469V295.771H198.486V291.71Z" fill="#A2DDFE"/>
<path d="M215.531 291.71H212.514V295.771H215.531V291.71Z" fill="#A2DDFE"/>
<path d="M209.95 291.71H206.933V295.771H209.95V291.71Z" fill="#A2DDFE"/>
<path d="M204.218 291.71H201.201V295.771H204.218V291.71Z" fill="#A2DDFE"/>
<path d="M198.637 285.242H195.62V289.304H198.637V285.242Z" fill="#A2DDFE"/>
<path d="M215.682 285.242H212.665V289.304H215.682V285.242Z" fill="#A2DDFE"/>
<path d="M210.101 285.242H207.084V289.304H210.101V285.242Z" fill="#A2DDFE"/>
<path d="M204.369 285.242H201.352V289.304H204.369V285.242Z" fill="#A2DDFE"/>
<path d="M203.916 258.017H203.615V259.521H203.916V258.017Z" fill="#C3C3C3"/>
<path d="M203.916 256.513H203.615V258.017H203.916V256.513Z" fill="#D44545"/>
<path d="M203.916 255.008H203.615V256.512H203.916V255.008Z" fill="#C3C3C3"/>
<path d="M207.386 256.513H207.084V258.017H207.386V256.513Z" fill="#C3C3C3"/>
<path d="M203.916 252H203.615V253.504H203.916V252Z" fill="#C3C3C3"/>
<path d="M203.916 253.504H203.615V255.008H203.916V253.504Z" fill="#D44545"/>
<path d="M207.386 258.017H207.084V259.521H207.386V258.017Z" fill="#D44545"/>
<path d="M207.386 255.008H207.084V256.512H207.386V255.008Z" fill="#D44545"/>
</g>
<defs>
<linearGradient id="paint0_linear_42_132" x1="128" y1="66.5" x2="123" y2="384" gradientUnits="userSpaceOnUse">
<stop stop-color="#24A2B8"/>
<stop offset="1" stop-color="white"/>
</linearGradient>
<clipPath id="clip0_42_132">
<rect width="52" height="40" fill="white" transform="translate(18 291)"/>
</clipPath>
<clipPath id="clip1_42_132">
<rect width="74" height="57" fill="white" transform="translate(76 317)"/>
</clipPath>
<clipPath id="clip2_42_132">
<rect width="27" height="54" fill="white" transform="translate(192 252)"/>
</clipPath>
</defs>
</svg>
